<svg width="24" height="24" viewBox="0 0 24 24" fill="none" xmlns="http://www.w3.org/2000/svg">
<path d="M20.5161 2H3.45161C2.64516 2 2 2.64516 2 3.45161V20.5484C2 21.3226 2.64516 22 3.45161 22H20.4516C21.2581 22 21.9032 21.3548 21.9032 20.5484V3.41935C21.9678 2.64516 21.3226 2 20.5161 2ZM7.90324 19H4.96776V9.48387H7.90324V19ZM6.41937 8.16129C5.45163 8.16129 4.70968 7.3871 4.70968 6.45161C4.70968 5.51613 5.48388 4.74194 6.41937 4.74194C7.35485 4.74194 8.12905 5.51613 8.12905 6.45161C8.12905 7.3871 7.41937 8.16129 6.41937 8.16129ZM19.0323 19H16.0968V14.3871C16.0968 13.2903 16.0645 11.8387 14.5484 11.8387C13 11.8387 12.7742 13.0645 12.7742 14.2903V19H9.83872V9.48387H12.7097V10.8065H12.7419C13.1613 10.0323 14.0968 9.25806 15.5484 9.25806C18.5484 9.25806 19.0968 11.1935 19.0968 13.8387V19H19.0323Z" fill="#111928"/>
</svg>
